<?xml version="1.0" encoding="UTF-8"?>
<!DOCTYPE svg PUBLIC "-//W3C//DTD SVG 1.1//EN" "http://www.w3.org/Graphics/SVG/1.1/DTD/svg11.dtd">
<!-- Creator: CorelDRAW -->
<svg xmlns="http://www.w3.org/2000/svg" xml:space="preserve" width="8.7941mm" height="8.7941mm" version="1.1" style="shape-rendering:geometricPrecision; text-rendering:geometricPrecision; image-rendering:optimizeQuality; fill-rule:evenodd; clip-rule:evenodd"
viewBox="0 0 6.81 6.81"
 xmlns:xlink="http://www.w3.org/1999/xlink"
 xmlns:xodm="http://www.corel.com/coreldraw/odm/2003">
 <defs>
  <style type="text/css">
   <![CDATA[
    .fil1 {fill:none}
    .fil0 {fill:#F4F4F4}
   ]]>
  </style>
 </defs>
 <g id="Layer_x0020_1">
  <metadata id="CorelCorpID_0Corel-Layer"/>
  <g id="_1819464896800">
   <polygon class="fil0" points="3.43,0.68 3.43,0.98 3.13,0.98 3.13,0.68 "/>
   <path class="fil0" d="M5.48 2.65l0 0c0.03,0.81 -1.37,0.61 -1.29,1.12 0.18,1.01 0.95,2.56 -0.78,2.34 -1.73,0.22 -0.96,-1.33 -0.78,-2.34 0.08,-0.51 -1.33,-0.31 -1.29,-1.12 0.14,0.29 0.53,0.4 0.89,0.5 0.32,0.09 0.62,0.18 0.63,0.36 0.03,0.31 -0.06,0.66 -0.15,0.99 -0.07,0.27 -0.14,0.53 -0.14,0.76 -0,0.39 0.19,0.66 0.84,0.66 0.66,-0 0.85,-0.27 0.85,-0.66 -0,-0.22 -0.07,-0.48 -0.14,-0.76 -0.09,-0.33 -0.18,-0.68 -0.15,-0.99 0.02,-0.18 0.31,-0.27 0.63,-0.36 0.36,-0.1 0.74,-0.21 0.89,-0.5z"/>
   <path class="fil0" d="M5.53 2.97l0 0c0.07,0.87 -1.09,0.62 -1.16,1.28 -0.03,-0.13 -0.05,-0.25 -0.06,-0.37 -0,-0.19 0.26,-0.28 0.56,-0.41 0.34,-0.14 0.54,-0.19 0.65,-0.5z"/>
   <path class="fil0" d="M1.55 2.52l1.61 0 0 0.48 0.48 0 0 -0.48 0.48 0 0 0.48 0.35 0c-0.35,0.1 -0.66,0.21 -0.69,0.5 -0.03,0.33 0.07,0.7 0.16,1.05 0.07,0.26 0.13,0.51 0.13,0.71 0,0.29 -0.15,0.48 -0.67,0.48 -0.52,-0 -0.67,-0.19 -0.67,-0.48 0,-0.2 0.06,-0.45 0.13,-0.71 0.09,-0.35 0.18,-0.71 0.16,-1.05 -0.03,-0.31 -0.38,-0.41 -0.76,-0.52 -0.34,-0.1 -0.7,-0.2 -0.79,-0.45 0.02,-0.01 0.05,-0.01 0.08,-0.01zm3.05 0l0.66 0c0.03,0 0.05,0 0.08,0.01 -0.12,0.33 -0.59,0.37 -0.73,0.43l0 -0.44z"/>
   <polygon class="fil0" points="2.19,1.56 2.19,2.04 1.73,2.04 1.73,1.56 "/>
   <polygon class="fil0" points="4.47,1.02 4.47,1.32 4.17,1.32 4.17,1.02 "/>
   <polygon class="fil0" points="2.99,1.25 2.99,1.65 2.59,1.65 2.59,1.25 "/>
   <polygon class="fil0" points="3.64,2.04 3.64,2.52 3.16,2.52 3.16,2.04 "/>
   <polygon class="fil0" points="4.63,1.73 4.63,2.12 4.24,2.12 4.24,1.73 "/>
   <polygon class="fil0" points="3.89,1.24 3.89,1.64 3.49,1.64 3.49,1.24 "/>
   <polygon class="fil0" points="2.19,2.52 2.19,2.04 2.68,2.04 2.68,2.52 "/>
   <path class="fil0" d="M5.55 3.39l0 0c0.13,0.82 -0.99,0.66 -1.01,1.28 -0.04,-0.12 -0.06,-0.21 -0.07,-0.32 -0.02,-0.17 0.22,-0.3 0.5,-0.45 0.32,-0.16 0.5,-0.22 0.59,-0.52z"/>
   <path class="fil0" d="M1.27 2.97l0 0c-0.07,0.87 1.09,0.62 1.16,1.28 0.03,-0.13 0.05,-0.25 0.06,-0.37 0,-0.19 -0.26,-0.28 -0.56,-0.41 -0.34,-0.14 -0.54,-0.19 -0.65,-0.5z"/>
   <path class="fil0" d="M1.26 3.39l0 0c-0.13,0.82 0.99,0.66 1.01,1.28 0.04,-0.12 0.06,-0.21 0.07,-0.32 0.02,-0.17 -0.22,-0.3 -0.5,-0.45 -0.32,-0.16 -0.5,-0.22 -0.59,-0.52z"/>
   <rect class="fil1" width="6.81" height="6.81"/>
  </g>
 </g>
</svg>
